<svg xmlns="http://www.w3.org/2000/svg" viewBox="0 0 156 156">
  <defs>
    <style>
      .a {
        fill: #323232;
      }

      .b {
        fill: #3f3fdf;
      }

      .c {
        fill: #3f78f9;
      }

      .d {
        fill: #9a39a4;
      }

      .e {
        fill: #f236e3;
      }
    </style>
  </defs>
  <path
    d="M51.8,75A2,2,0,0,1,50,73.86L29.18,31.61a1.75,1.75,0,0,1,.08-1.7,1.77,1.77,0,0,1,1.49-.82H39.4a2,2,0,0,1,1.81,1.13l21,42.63A1.47,1.47,0,0,1,60.91,75Z" />
  <path class="a"
    d="M51.37,75a1.25,1.25,0,0,1-1.06-.59,1.26,1.26,0,0,1-.06-1.22L71.42,30.22a2,2,0,0,1,1.82-1.13h8.64a1.74,1.74,0,0,1,1.57,2.52L62.61,73.88A1.94,1.94,0,0,1,60.86,75Z" />
  <path class="b"
    d="M116.6,75a2,2,0,0,1-1.81-1.13L93.62,30.9a1.26,1.26,0,0,1,.06-1.22,1.25,1.25,0,0,1,1.06-.59h9.49A1.94,1.94,0,0,1,106,30.18l20.84,42.27a1.75,1.75,0,0,1-.08,1.7,1.77,1.77,0,0,1-1.49.82Z" />
  <path class="c"
    d="M74.12,75a1.74,1.74,0,0,1-1.57-2.52L93.38,30.2a2,2,0,0,1,1.79-1.11h9.11a1.47,1.47,0,0,1,1.32,2.12l-21,42.63A2,2,0,0,1,82.76,75Z" />
  <path class="d"
    d="M73.24,130.91a2,2,0,0,1-1.82-1.13L50.25,86.84a1.26,1.26,0,0,1,.06-1.22A1.25,1.25,0,0,1,51.37,85h9.49a1.94,1.94,0,0,1,1.75,1.09l20.84,42.27a1.74,1.74,0,0,1-1.57,2.52Z" />
  <path class="d"
    d="M116.6,130.91a2,2,0,0,1-1.81-1.13L93.62,86.84a1.26,1.26,0,0,1,.06-1.22A1.25,1.25,0,0,1,94.74,85h9.49A1.94,1.94,0,0,1,106,86.12l20.84,42.27a1.75,1.75,0,0,1-.08,1.7,1.77,1.77,0,0,1-1.49.82Z" />
  <path class="e"
    d="M74.12,130.91a1.74,1.74,0,0,1-1.57-2.52L93.38,86.14A2,2,0,0,1,95.17,85h9.11a1.47,1.47,0,0,1,1.32,2.12l-21,42.63a2,2,0,0,1-1.82,1.13Z" />
  <path class="e"
    d="M30.75,130.91a1.77,1.77,0,0,1-1.49-.82,1.75,1.75,0,0,1-.08-1.7L50,86.14A2,2,0,0,1,51.8,85h9.11a1.47,1.47,0,0,1,1.32,2.12l-21,42.63a2,2,0,0,1-1.81,1.13Z" />
</svg>
